HIERARCHY
ROOT Hips
{
	OFFSET 0.00000 0.00000 0.00000
	CHANNELS 6 Xposition Yposition Zposition Zrotation Yrotation Xrotation 
	JOINT LHipJoint
	{
		OFFSET 0 0 0
		CHANNELS 3 Zrotation Yrotation Xrotation
		JOINT LeftUpLeg
		{
			OFFSET 2.05677 -1.58049 1.10403
			CHANNELS 3 Zrotation Yrotation Xrotation
			JOINT LeftLeg
			{
				OFFSET 2.02748 -5.57047 0.00000
				CHANNELS 3 Zrotation Yrotation Xrotation
				JOINT LeftFoot
				{
					OFFSET 2.69552 -7.40589 0.00000
					CHANNELS 3 Zrotation Yrotation Xrotation
					JOINT LeftToeBase
					{
						OFFSET 0.09402 -0.25831 1.95424
						CHANNELS 3 Zrotation Yrotation Xrotation
						End Site
						{
							OFFSET 0.00000 -0.00000 0.99937
						}
					}
				}
			}
		}
	}
	JOINT RHipJoint
	{
		OFFSET 0 0 0
		CHANNELS 3 Zrotation Yrotation Xrotation
		JOINT RightUpLeg
		{
			OFFSET -1.90113 -1.58050 1.10403
			CHANNELS 3 Zrotation Yrotation Xrotation
			JOINT RightLeg
			{
				OFFSET -2.04535 -5.61956 0.00000
				CHANNELS 3 Zrotation Yrotation Xrotation
				JOINT RightFoot
				{
					OFFSET -2.62202 -7.20394 0.00000
					CHANNELS 3 Zrotation Yrotation Xrotation
					JOINT RightToeBase
					{
						OFFSET -0.10393 -0.28555 1.99081
						CHANNELS 3 Zrotation Yrotation Xrotation
						End Site
						{
							OFFSET -0.00000 -0.00000 1.01862
						}
					}
				}
			}
		}
	}
	JOINT LowerBack
	{
		OFFSET 0 0 0
		CHANNELS 3 Zrotation Yrotation Xrotation
		JOINT Spine
		{
			OFFSET -0.08023 1.81443 -0.26993
			CHANNELS 3 Zrotation Yrotation Xrotation
			JOINT Spine1
			{
				OFFSET 0.04312 1.79960 0.09924
				CHANNELS 3 Zrotation Yrotation Xrotation
				JOINT Neck
				{
					OFFSET 0 0 0
					CHANNELS 3 Zrotation Yrotation Xrotation
					JOINT Neck1
					{
						OFFSET -0.04205 1.79103 0.11343
						CHANNELS 3 Zrotation Yrotation Xrotation
						JOINT Head
						{
							OFFSET 0.06228 1.77547 -0.31107
							CHANNELS 3 Zrotation Yrotation Xrotation
							End Site
							{
								OFFSET 0.01771 1.81538 -0.11931
							}
						}
					}
				}
				JOINT LeftShoulder
				{
					OFFSET 0 0 0
					CHANNELS 3 Zrotation Yrotation Xrotation
					JOINT LeftArm
					{
						OFFSET 3.63907 0.79660 -0.40306
						CHANNELS 3 Zrotation Yrotation Xrotation
						JOINT LeftForeArm
						{
							OFFSET 4.83799 -0.00000 0.00000
							CHANNELS 3 Zrotation Yrotation Xrotation
							JOINT LeftHand
							{
								OFFSET 2.68259 -0.00000 0.00000
								CHANNELS 3 Zrotation Yrotation Xrotation
								JOINT LeftFingerBase
								{
									OFFSET 0 0 0
									CHANNELS 3 Zrotation Yrotation Xrotation
									JOINT LeftHandIndex1
									{
										OFFSET 0.72476 -0.00000 0.00000
										CHANNELS 3 Zrotation Yrotation Xrotation
										End Site
										{
											OFFSET 0.58432 -0.00000 0.00000
										}
									}
								}
								JOINT LThumb
								{
									OFFSET 0 0 0
									CHANNELS 3 Zrotation Yrotation Xrotation
									End Site
									{
										OFFSET 0.59325 -0.00000 0.59325
									}
								}
							}
						}
					}
				}
				JOINT RightShoulder
				{
					OFFSET 0 0 0
					CHANNELS 3 Zrotation Yrotation Xrotation
					JOINT RightArm
					{
						OFFSET -3.79008 0.56049 -0.20494
						CHANNELS 3 Zrotation Yrotation Xrotation
						JOINT RightForeArm
						{
							OFFSET -4.61639 -0.00000 -0.00000
							CHANNELS 3 Zrotation Yrotation Xrotation
							JOINT RightHand
							{
								OFFSET -2.86915 -0.00000 0.00000
								CHANNELS 3 Zrotation Yrotation Xrotation
								JOINT RightFingerBase
								{
									OFFSET 0 0 0
									CHANNELS 3 Zrotation Yrotation Xrotation
									JOINT RightHandIndex1
									{
										OFFSET -0.72601 -0.00000 0.00000
										CHANNELS 3 Zrotation Yrotation Xrotation
										End Site
										{
											OFFSET -0.58533 -0.00000 0.00000
										}
									}
								}
								JOINT RThumb
								{
									OFFSET 0 0 0
									CHANNELS 3 Zrotation Yrotation Xrotation
									End Site
									{
										OFFSET -0.59426 -0.00000 0.59426
									}
								}
							}
						}
					}
				}
			}
		}
	}
}
MOTION
Frames: 8
Frame Time: .0083333
-2.6178 16.1768 -27.894 0 0 0 0 0 0 -21 0 0 0 0 0 0 0 0 0 0 0 0 0 0 21 0 0 0 0 0 0 0 0 0 0 0 0 0 0 0 0 0 0 0 0 0 0 -16 0 0 21 0 0 11 0 0 0 -8 0 0 0 0 0 0 0 0 0 0 0 0 0 0 0 0 0 0 0 0 8 0 0 0 0 0 0 0 0 0 0 0 0 0 0 0 0 0
-2.6178 16.1768 -27.8940 0.1504 1.8161 3.6604 0.0000 0.0000 0.0000 -10.2867 -29.8353 -25.2991 2.1349 9.1415 26.2391 -0.0816 7.5372 -8.6944 2.8242 10.4048 30.2978 0.0000 0.0000 0.0000 25.2617 4.8238 22.0628 0.0000 0.0000 -0.0000 -0.5610 -2.9459 -15.5273 -0.5627 -4.8046 13.3522 -5.0074 1.2165 12.4917 1.6959 0.9544 -4.9352 4.4871 0.9482 -12.6208 -5.0763 -6.1336 -6.7208 3.9101 -8.3637 15.8858 1.4291 -4.0672 6.3052 0.0000 0.0000 0.0000 -90.3354 11.9848 20.7782 11.4768 -19.0153 -1.9284 -0.0000 -0.0000 1.1047 5.9975 18.6816 1.9274 -7.1250 0.0000 -0.0000 -21.1552 47.5766 -1.4048 0.0000 0.0000 0.0000 86.0927 -2.1859 27.8274 -11.8768 19.6196 -2.0607 0.0000 0.0000 11.6928 -12.9076 23.3296 -5.1857 7.1250 -0.0000 -0.0000 10.0630 -6.4173 9.0188
-2.5846 16.1788 -27.7823 0.3319 1.7513 3.6450 0.0000 0.0000 0.0000 -10.8320 -29.3252 -25.2203 2.2133 9.2968 26.7283 -0.0551 7.1067 -8.7215 3.0388 10.7577 31.4669 0.0000 0.0000 0.0000 24.9900 4.7327 22.5106 0.0000 -0.0000 0.0000 -0.5390 -3.0775 -15.3309 -0.4804 -4.4446 12.3309 -5.1370 1.4196 12.6208 1.4840 1.1769 -4.7116 4.2714 1.0423 -12.4668 -4.5328 -6.4154 -8.3293 3.6455 -8.7342 16.4047 1.1665 -4.2045 6.7312 -0.0000 -0.0000 0.0000 -89.9800 11.6011 21.3264 11.3385 -18.8053 -1.8836 -0.0000 -0.0000 1.4163 6.4600 17.3896 1.9382 -7.1250 0.0000 -0.0000 -20.2060 46.4273 -0.7416 -0.0000 -0.0000 0.0000 86.4736 -1.9201 27.0662 -11.8696 19.6088 -2.0583 0.0000 0.0000 11.7103 -12.6325 22.7667 -4.9569 7.1250 -0.0000 -0.0000 10.2121 -7.0117 9.0376
-2.5204 16.1526 -27.6319 0.6577 2.9782 2.7196 0.0000 0.0000 0.0000 -12.3316 -29.6784 -23.7003 2.2631 9.3938 27.0353 -0.0268 6.4931 -8.5402 3.2707 11.1209 32.6887 0.0000 0.0000 0.0000 24.5356 2.9318 23.7447 0.0000 -0.0000 0.0000 -0.5643 -2.8838 -15.5317 -0.4386 -4.2495 11.7795 -4.8590 0.9162 12.7536 1.3747 0.5331 -4.3340 4.1402 0.6892 -12.0263 -4.7392 -6.3278 -8.1750 3.7425 -8.6056 16.3762 1.2473 -4.1500 6.7033 -0.0000 -0.0000 0.0000 -90.0793 11.7241 21.2149 11.1105 -18.4574 -1.8107 -0.0000 -0.0000 1.5306 7.1083 16.6349 2.0445 -7.1250 0.0000 -0.0000 -19.3352 45.7963 -0.3948 -0.0000 -0.0000 0.0000 86.4775 -2.1054 27.4584 -11.9198 19.6842 -2.0752 0.0000 0.0000 11.2744 -12.5675 21.5399 -4.6792 7.1250 -0.0000 -0.0000 10.2127 -8.2436 8.7873
-2.5021 16.1522 -27.5658 0.7781 3.7025 3.0131 0.0000 0.0000 0.0000 -12.6402 -29.0592 -24.3694 2.3125 9.4888 27.3366 -0.0171 5.5738 -7.4185 3.3524 11.2448 33.1099 0.0000 0.0000 0.0000 24.3395 2.2745 23.5446 0.0000 -0.0000 0.0000 -0.5197 -3.1021 -15.1030 -0.3691 -3.9023 10.8020 -5.0817 0.5640 12.6893 1.4518 0.0271 -4.5924 4.4713 0.4830 -12.2291 -4.9929 -6.1624 -7.1975 3.8019 -8.3836 16.1001 1.3620 -4.0712 6.4487 -0.0000 0.0000 0.0000 -90.2403 12.3716 21.1164 11.1458 -18.5113 -1.8219 -0.0000 -0.0000 1.3345 7.1090 16.8378 2.0690 -7.1250 0.0000 -0.0000 -19.4114 45.9885 -0.4920 -0.0000 0.0000 0.0000 86.4521 -2.3302 24.0517 -10.1600 16.9894 -1.5214 0.0000 0.0000 17.7908 -17.7097 28.5715 -8.6831 7.1250 -0.0000 -0.0000 7.5355 -0.4505 7.5417
-2.4671 16.1585 -27.4768 0.9125 3.5944 3.2275 0.0000 0.0000 0.0000 -13.0137 -28.3735 -24.6154 2.3606 9.5799 27.6266 -0.0048 5.0531 -7.0522 3.4229 11.3501 33.4700 0.0000 0.0000 0.0000 24.0579 2.3886 23.6834 0.0000 -0.0000 0.0000 -0.4664 -3.3388 -14.5575 -0.3327 -3.7070 10.2537 -5.1300 0.6466 12.4702 1.3204 0.1259 -4.6338 4.3283 0.5253 -12.1556 -4.8327 -6.2680 -7.0372 3.7330 -8.5418 16.0287 1.3073 -4.1465 6.3953 -0.0000 -0.0000 0.0000 -89.9678 12.6239 21.8522 11.3090 -18.7603 -1.8741 -0.0000 -0.0000 0.6169 6.3024 18.0636 1.9613 -7.1250 0.0000 -0.0000 -20.6203 47.0394 -1.0823 -0.0000 -0.0000 0.0000 86.7288 -2.7599 26.1116 -11.5026 19.0545 -1.9368 0.0000 0.0000 12.2107 -12.7522 22.7535 -5.0024 7.1250 -0.0000 -0.0000 10.1370 -7.0109 8.9690
-2.4244 16.1670 -27.3792 0.9462 3.1826 3.3520 0.0000 0.0000 0.0000 -13.3400 -27.4522 -24.6963 2.3944 9.6433 27.8293 0.0101 4.5372 -6.8352 3.5697 11.5646 34.2087 0.0000 0.0000 0.0000 23.8518 2.7659 23.9989 0.0000 0.0000 -0.0000 -0.4078 -3.6000 -13.9268 -0.2637 -3.3034 9.1245 -5.1200 0.8973 12.4899 1.2285 0.4541 -4.6242 4.1458 0.6761 -12.1940 -4.6034 -6.4378 -7.5313 3.6327 -8.7744 16.1779 1.2003 -4.2438 6.5241 0.0000 0.0000 0.0000 -89.8145 12.3507 22.0614 11.1220 -18.4750 -1.8144 -0.0000 -0.0000 0.7718 5.2847 19.6385 1.7806 -7.1250 0.0000 -0.0000 -22.2246 48.3674 -1.9351 0.0000 0.0000 0.0000 87.0414 -3.0115 25.7432 -11.9088 19.6677 -2.0715 0.0000 0.0000 11.2038 -11.2159 20.4080 -3.9554 7.1250 -0.0000 -0.0000 11.0452 -9.5119 9.2462
-2.3843 16.1784 -27.2813 1.0066 2.8733 3.4323 0.0000 0.0000 0.0000 -13.7140 -26.5893 -24.7515 2.4409 9.7296 28.1055 0.0205 4.0493 -6.5557 3.7291 11.7910 34.9964 0.0000 0.0000 0.0000 23.6321 3.0305 24.3043 0.0000 0.0000 -0.0000 -0.3436 -3.9221 -13.2210 -0.1914 -2.8178 7.7719 -5.2478 1.0858 12.5997 1.2236 0.6780 -4.6929 4.1622 0.7985 -12.3690 -4.4318 -6.5141 -7.6346 3.4439 -8.8631 16.0974 1.1035 -4.2901 6.5036 -0.0000 -0.0000 0.0000 -89.8787 12.3307 22.1333 10.9513 -18.2136 -1.7607 -0.0000 -0.0000 1.1403 4.9757 21.0326 1.7897 -7.1250 0.0000 -0.0000 -23.1698 49.6071 -2.7648 -0.0000 -0.0000 0.0000 87.1026 -3.3775 24.9876 -11.7915 19.4913 -2.0322 0.0000 0.0000 11.8647 -11.3043 20.3980 -3.9855 7.1250 -0.0000 -0.0000 10.9887 -9.5131 9.1968
